<?xml version="1.0" standalone="no"?>
<!DOCTYPE svg PUBLIC "-//W3C//DTD SVG 20010904//EN"
 "http://www.w3.org/TR/2001/REC-SVG-20010904/DTD/svg10.dtd">
<svg version="1.0" xmlns="http://www.w3.org/2000/svg"
 width="150.000000pt" height="800.000000pt" viewBox="0 0 150.000000 800.000000"
 preserveAspectRatio="xMidYMid meet">

<g transform="translate(0.000000,800.000000) scale(0.100000,-0.100000)"
 stroke="none">
<path d="M253 7794 c-13 -20 -18 -46 -17 -89 4 -218 16 -679 19 -725 2 -30 6
-206 10 -390 3 -184 7 -398 10 -475 14 -392 23 -1628 24 -3060 1 -1776 4
-1968 31 -1925 5 8 9 84 9 170 4 679 3 5215 0 5665 -3 314 -3 599 -1 633 4 62
5 64 29 59 14 -3 40 -1 57 4 28 8 235 29 442 44 115 8 284 8 318 -1 l29 -7 -9
-176 c-4 -97 -9 -234 -9 -306 -1 -100 -6 -146 -22 -200 -35 -119 -33 -115 -64
-115 -16 0 -29 3 -29 8 0 16 18 34 28 28 6 -3 14 -1 18 5 3 6 1 15 -6 19 -10
6 -10 15 -1 43 22 66 7 278 -23 335 -20 36 -130 152 -145 152 -6 0 6 -17 28
-39 54 -54 88 -131 100 -226 5 -44 8 -89 6 -100 -2 -11 -4 -39 -4 -62 -1 -24
-4 -43 -9 -43 -7 0 -65 57 -129 125 -15 17 -36 46 -47 65 -10 19 -34 54 -52
77 -19 23 -34 44 -34 47 0 11 -71 116 -78 116 -15 0 -32 -24 -32 -45 0 -23
-31 -72 -107 -166 -29 -36 -53 -70 -53 -76 0 -15 -59 -67 -67 -60 -4 4 -7 47
-7 95 0 76 4 96 28 145 29 60 84 115 151 150 33 18 58 21 142 22 111 0 122 8
58 38 -30 15 -55 18 -109 15 -88 -5 -170 -43 -238 -111 -39 -39 -52 -61 -73
-128 -28 -91 -32 -172 -11 -244 14 -45 14 -51 -10 -114 -35 -93 -30 -118 28
-152 76 -45 158 -61 289 -56 63 3 128 9 144 15 17 5 48 15 71 21 23 6 62 27
87 46 37 28 55 35 92 35 25 0 57 -7 70 -16 26 -17 58 -12 88 14 23 21 22 47
-9 128 -28 73 -33 149 -12 188 22 40 47 262 46 408 -1 158 -6 183 -42 199 -21
10 -33 8 -73 -11 -39 -19 -63 -23 -129 -21 -65 1 -83 -2 -87 -14 -5 -11 -12
-13 -29 -6 -13 5 -125 10 -248 10 -232 2 -347 16 -396 47 -21 14 -24 14 -41
-12z m623 -623 c53 -75 112 -152 131 -172 28 -29 33 -41 27 -63 -8 -34 -15
-38 -88 -43 l-61 -5 33 32 c17 17 32 36 32 42 0 6 -15 25 -34 43 -34 32 -98
55 -153 55 -15 0 -34 4 -41 8 -16 10 11 23 86 42 62 16 67 35 21 74 -34 29
-46 31 -135 15 -72 -12 -83 -27 -50 -66 21 -25 26 -26 50 -15 15 7 39 12 54
11 24 -1 21 -4 -23 -25 -27 -13 -70 -40 -95 -59 -25 -19 -52 -38 -60 -42 -8
-3 -18 -11 -21 -16 -4 -5 -16 5 -28 21 l-21 30 117 156 117 156 22 -21 c13
-12 67 -83 120 -158z m-8 -180 c28 -15 21 -29 -38 -74 -45 -34 -48 -35 -112
-28 -73 8 -98 22 -98 56 0 45 53 66 155 61 39 -1 80 -8 93 -15z m-318 -125 c0
-11 10 -31 23 -44 l22 -24 -25 7 c-81 24 -132 49 -147 72 -15 23 -15 27 6 69
l21 45 50 -53 c27 -29 49 -62 50 -72z m439 -2 c-7 -8 -35 -27 -62 -41 l-50
-25 -20 21 c-37 36 -5 53 112 59 29 2 32 0 20 -14z m-274 0 c14 -6 11 -10 -14
-20 -23 -10 -31 -19 -31 -39 0 -39 -44 -30 -46 10 -1 11 -5 28 -9 38 -6 15 -1
17 38 17 25 0 53 -3 62 -6z"/>
<path d="M542 6632 c-10 -29 0 -71 21 -84 19 -12 56 -9 87 7 51 26 32 2 -23
-30 -40 -24 -52 -36 -52 -55 0 -23 4 -25 45 -25 25 0 58 4 74 8 26 7 28 6 17
-7 -8 -9 -18 -16 -23 -16 -5 0 -43 -16 -84 -35 -41 -19 -79 -35 -84 -35 -17 0
-11 -28 7 -39 12 -6 32 -3 68 11 73 30 193 58 246 58 l46 0 6 -148 c6 -164 21
-219 67 -252 76 -54 131 -28 149 72 17 103 19 526 1 483 -4 -11 -6 -81 -3
-155 4 -127 -10 -308 -28 -356 -4 -12 -19 -24 -33 -28 -42 -11 -75 10 -98 61
-19 42 -20 61 -16 205 4 139 3 160 -12 173 -13 12 -23 13 -44 5 -15 -5 -42
-10 -59 -9 l-32 0 45 22 c32 16 46 29 48 46 4 24 3 24 -60 17 -34 -4 -73 -10
-85 -13 -13 -3 -23 -1 -23 5 0 9 55 34 143 63 42 15 46 28 16 55 -30 27 -97
23 -189 -9 -88 -32 -90 -32 -90 -9 0 18 -18 42 -31 42 -4 0 -11 -12 -17 -28z"/>
<path d="M690 6332 c0 -11 -14 -24 -39 -35 -52 -23 -151 -128 -151 -160 0 -13
9 -36 20 -50 25 -32 25 -44 1 -52 -32 -10 -46 -32 -31 -50 16 -20 51 -19 88 2
28 16 30 16 59 -5 39 -27 63 -28 70 -2 7 27 20 26 137 -19 89 -34 227 -71 264
-71 29 0 8 18 -35 31 -27 7 -62 20 -79 30 -17 9 -53 22 -80 28 -91 21 -194 67
-202 90 -2 6 14 18 36 27 22 8 43 22 46 29 6 15 -38 55 -60 55 -8 0 -14 5 -14
10 0 6 4 10 9 10 20 0 61 54 61 82 0 24 -5 29 -30 34 -16 4 -35 13 -41 20 -16
19 -29 17 -29 -4z m55 -68 c-23 -17 -34 -2 -14 22 9 11 15 12 23 4 8 -8 6 -15
-9 -26z m-65 -4 c0 -10 -14 -36 -32 -55 l-31 -37 29 -24 29 -24 -24 -20 c-13
-11 -34 -20 -46 -20 -24 0 -85 44 -85 61 0 15 82 100 115 120 38 24 45 24 45
-1z"/>
<path d="M595 5840 c-10 -16 7 -64 33 -92 28 -30 57 -36 65 -14 5 13 126 60
134 52 5 -5 -44 -36 -122 -77 -76 -40 -92 -66 -56 -91 18 -13 19 -19 11 -49
-14 -48 -30 -160 -31 -225 -1 -30 -3 -54 -6 -54 -4 0 -86 40 -91 45 -9 8 27
58 49 68 36 19 35 44 -5 81 -43 38 -44 56 -11 100 14 18 25 40 25 49 0 19 -66
67 -92 67 -32 0 -29 -20 6 -41 37 -22 37 -23 3 -72 -23 -33 -17 -81 13 -120
11 -14 20 -30 20 -36 0 -24 -40 -83 -80 -119 -27 -23 -41 -43 -36 -50 12 -19
33 -14 60 15 l25 27 83 -42 c121 -61 306 -81 428 -47 30 9 72 18 92 22 21 3
35 10 32 14 -3 5 -9 7 -13 5 -4 -3 -68 -7 -142 -10 -114 -4 -131 -3 -116 9 15
11 19 30 21 107 2 51 6 120 10 153 7 74 -7 107 -49 116 l-30 6 28 11 c16 7 37
12 48 12 23 0 24 9 3 39 -9 13 -13 26 -8 30 5 3 15 18 23 33 13 25 12 30 -4
48 -27 30 -79 35 -162 16 -72 -17 -73 -17 -102 3 -32 23 -47 26 -56 11z m245
-258 c21 -17 22 -25 21 -145 -1 -70 -4 -133 -7 -142 -8 -21 -44 -18 -72 5 -27
22 -21 40 13 40 36 0 41 31 9 59 -23 19 -26 26 -16 40 23 31 25 42 11 67 -11
22 -18 25 -44 20 -16 -4 -36 -14 -42 -23 -19 -25 -27 -8 -13 27 8 20 27 37 54
49 52 25 59 25 86 3z m-85 -112 c-19 -38 -19 -65 2 -85 14 -14 14 -18 2 -26
-29 -18 -49 -1 -56 49 -5 35 -2 44 22 66 37 34 49 33 30 -4z m-65 -116 c0 -8
-4 -12 -10 -9 -5 3 -10 10 -10 16 0 5 5 9 10 9 6 0 10 -7 10 -16z m82 -85 l33
-21 -43 5 c-50 6 -63 14 -42 27 19 12 14 13 52 -11z"/>
<path d="M490 5814 c0 -9 11 -29 25 -46 14 -16 25 -38 25 -49 0 -22 18 -26 26
-4 11 27 -16 85 -47 100 -26 14 -29 14 -29 -1z"/>
<path d="M309 1019 c-9 -215 0 -522 16 -537 4 -4 5 9 3 28 -3 19 -2 45 3 58 5
13 9 127 9 253 1 178 -2 235 -13 256 -14 25 -15 22 -18 -58z"/>
</g>
</svg>
