<?xml version="1.0" encoding="UTF-8"?>
<svg version="1.1" xmlns="http://www.w3.org/2000/svg" width="32" height="32">
<path d="M0 0 C9.9 0 19.8 0 30 0 C30 9.9 30 19.8 30 30 C20.1 30 10.2 30 0 30 C0 20.1 0 10.2 0 0 Z " fill="#FFFFFF" transform="translate(1,1)"/>
<path d="M0 0 C9.9 0 19.8 0 30 0 C30 9.9 30 19.8 30 30 C20.1 30 10.2 30 0 30 C0 20.1 0 10.2 0 0 Z M3 8 C1.13665085 11.7266983 1.43369122 15.94249097 2 20 C3.89726705 23.60407485 6.62640782 25.75093855 10 28 C14.28154521 28.77846277 18.3473529 28.96725845 22.17578125 26.7265625 C26.5086526 23.0544005 26.5086526 23.0544005 28.2734375 17.828125 C28.53500847 11.71357631 28.53500847 11.71357631 25.6875 6.5 C21.18519782 2.31181193 18.55838431 1.45156099 12.58203125 1.5390625 C8.32614766 2.29881176 5.73638229 4.76989736 3 8 Z " fill="#000080" transform="translate(1,1)"/>
<path d="M0 0 C7.26 0 14.52 0 22 0 C15.79937792 6.20062208 15.79937792 6.20062208 11.3125 6.375 C7.50461847 6.35861027 5.32513799 6.01741099 2.375 3.5625 C0 1 0 1 0 0 Z " fill="#C0C0C0" transform="translate(5,23)"/>
<path d="M0 0 C5.05510556 0.44603873 7.40166738 2.64700824 11 6 C12.26237731 8.52475462 12.09856404 10.31200466 12.0625 13.125 C12.05347656 14.03507812 12.04445313 14.94515625 12.03515625 15.8828125 C12.02355469 16.58148437 12.01195312 17.28015625 12 18 C11.34 18 10.68 18 10 18 C8.85498047 16.45532227 8.85498047 16.45532227 7.6171875 14.31640625 C7.17246094 13.55392578 6.72773438 12.79144531 6.26953125 12.00585938 C5.57923828 10.79639648 5.57923828 10.79639648 4.875 9.5625 C4.40707031 8.76005859 3.93914063 7.95761719 3.45703125 7.13085938 C0 1.15916545 0 1.15916545 0 0 Z " fill="#C0C0C0" transform="translate(17,3)"/>
<path d="M0 0 C0.8971875 0.309375 0.8971875 0.309375 1.8125 0.625 C0.19948859 3.46532202 -1.42983055 6.29593916 -3.0625 9.125 C-3.52269531 9.93582031 -3.98289062 10.74664062 -4.45703125 11.58203125 C-4.90175781 12.34902344 -5.34648438 13.11601562 -5.8046875 13.90625 C-6.21315918 14.61845703 -6.62163086 15.33066406 -7.04248047 16.06445312 C-7.60926514 16.83692383 -7.60926514 16.83692383 -8.1875 17.625 C-8.8475 17.625 -9.5075 17.625 -10.1875 17.625 C-11.04841417 7.94449849 -11.04841417 7.94449849 -7.875 4.125 C-2.90523221 -0.49803981 -2.90523221 -0.49803981 0 0 Z " fill="#C0C0C0" transform="translate(13.1875,3.375)"/>
</svg>
